Coordinates
version=1
nRows=6
nColumns=36
inDegrees=yes

Units are S.I. units (second, meters, Newtons, ...)
If the header above contains a line with 'inDegrees', this indicates whether rotational values are in degrees (yes) or radians (no).

endheader
time	pelvis_tilt	pelvis_list	pelvis_rotation	pelvis_tx	pelvis_ty	pelvis_tz	hip_flexion_r	hip_adduction_r	hip_rotation_r	knee_angle_r	knee_angle_r_beta	ankle_angle_r	subtalar_angle_r	mtp_angle_r	hip_flexion_l	hip_adduction_l	hip_rotation_l	knee_angle_l	knee_angle_l_beta	ankle_angle_l	subtalar_angle_l	mtp_angle_l	lumbar_extension	lumbar_bending	lumbar_rotation	arm_flex_r	arm_add_r	arm_rot_r	elbow_flex_r	pro_sup_r	arm_flex_l	arm_add_l	arm_rot_l	elbow_flex_l	pro_sup_l
      0.00000000	      0.41531346	     -2.46005922	      3.18160963	     -0.07566814	      1.24024355	     -0.12534146	      6.28469527	      0.34120408	      0.03926462	     13.41584544	      0.23415067	     11.19247343	    -13.11027449	     -6.94468682	      6.11359832	     -1.47090900	      4.80050625	     17.25213169	      0.30110650	     17.15104340	     -8.15558152	     -6.94468682	    -11.51591158	      2.63582226	     -2.94446254	      8.60568571	     -8.50692665	      6.65352263	     16.98383830	     90.07935370	      5.85338547	     -8.38574072	     -0.13347823	     17.09683549	     91.83450498
      0.01666670	     -0.32236066	     -2.30986008	      2.35818798	     -0.07553864	      1.23677413	     -0.12539266	      7.17337825	     -0.05607088	     -1.72990139	     14.20316040	      0.24789191	     13.56701745	    -10.22596780	     -7.12518097	      8.04039108	     -1.21373850	      3.16723133	     19.21052288	      0.33528688	     16.93630196	     -8.83855812	     -7.12518097	     -9.95749625	      2.47511613	     -2.08015946	      9.12889152	     -8.39447897	      6.68719023	     15.09879483	     86.34722587	      5.70677917	     -7.79109192	      0.30167590	     15.58153239	     87.77779132
      0.03333330	     -1.17412652	     -2.14264963	      3.02125807	     -0.07579197	      1.23487759	     -0.12561379	      7.84308014	     -0.51114022	     -3.10840391	     13.99083269	      0.24418610	     14.27670472	     -9.72756515	     -7.18479170	      9.17818857	     -0.84440137	      4.05356732	     19.13528270	      0.33397369	     16.23114721	     -9.15371503	     -7.18479170	     -8.68839399	      2.40179993	     -2.87179859	      9.09252020	     -8.32412473	      8.03540241	     14.49120041	     90.65662458	      6.50141480	     -8.20342267	      4.57710640	     14.50330021	     92.48024765
      0.05000000	     -0.89456456	     -1.96071480	      2.98636302	     -0.07708023	      1.23448433	     -0.12607359	      7.59074620	     -0.96426381	     -4.38485892	     14.50555290	      0.25316966	     15.15412513	     -9.22659395	     -7.21519437	      8.97912976	     -0.76072997	      3.54929932	     19.66016387	      0.34313459	     16.69330068	     -8.59299205	     -7.21519437	     -8.83785352	      2.31411815	     -3.14980519	      9.48825381	     -8.08535134	      6.52720966	     14.29434529	     93.26012002	      6.98632214	     -7.98607827	      3.82740582	     14.14263971	     95.04239861
      0.06666670	     -0.57124157	     -1.87380276	      2.85531842	     -0.07915669	      1.23391753	     -0.11913718	      7.58936771	     -1.07530815	     -4.85056627	     15.35599377	      0.26801265	     15.71336451	     -9.51218436	     -7.21740447	      9.16050340	     -0.79932091	      3.22963882	     20.78830278	      0.36282433	     16.95159943	     -8.68070139	     -7.21740447	     -9.39298999	      2.10454076	     -3.11728122	      9.92723074	     -7.84477194	      6.43344697	     14.37823904	     93.22152662	      7.51317966	     -8.04421376	      3.73127308	     14.14979404	     95.01745533
      0.08333330	     -0.64774362	     -1.79538152	      2.51118335	     -0.08031680	      1.23359789	     -0.11922284	      8.22360202	     -1.23829029	     -5.11401594	     16.44679680	      0.28705076	     16.00709997	     -9.86966811	     -7.25005891	      9.77930550	     -0.84538335	      2.68855369	     21.93404247	      0.38282126	     17.54358473	     -8.38998081	     -7.25005891	     -9.47856735	      1.92195912	     -2.92531501	     10.01745668	     -7.69820973	      6.36881175	     14.56561520	     91.15063023	      7.60705068	     -8.03034705	      3.76344175	     14.25092527	     93.04845802
